<svg width="48" height="48" viewBox="0 0 48 48" fill="none" xmlns="http://www.w3.org/2000/svg">
<path d="M24 46.5C36.4264 46.5 46.5 36.4264 46.5 24C46.5 11.5736 36.4264 1.5 24 1.5C11.5736 1.5 1.5 11.5736 1.5 24C1.5 36.4264 11.5736 46.5 24 46.5Z" fill="#DF4E50"/>
<path d="M15.375 22.2C17.4461 22.2 19.125 20.5211 19.125 18.45C19.125 16.3789 17.4461 14.7 15.375 14.7C13.3039 14.7 11.625 16.3789 11.625 18.45C11.625 20.5211 13.3039 22.2 15.375 22.2Z" fill="#B6160D"/>
<path d="M32.625 22.2C34.6961 22.2 36.375 20.5211 36.375 18.45C36.375 16.3789 34.6961 14.7 32.625 14.7C30.5539 14.7 28.875 16.3789 28.875 18.45C28.875 20.5211 30.5539 22.2 32.625 22.2Z" fill="#B6160D"/>
<path d="M14.55 34.35C20.625 30.075 27.375 30.15 33.45 34.35C34.2 34.875 34.8 33.975 34.35 33.15C32.475 30.15 28.8 27.375 24 27.375C19.2 27.375 15.525 30.075 13.65 33.15C13.2 33.975 13.8 34.875 14.55 34.35" fill="#B6160D"/>
</svg>
