<svg width="49" height="91" viewBox="0 0 49 91" fill="none" xmlns="http://www.w3.org/2000/svg">
<path d="M24.8889 46.5C37.3153 46.5 47.3889 36.4264 47.3889 24C47.3889 11.5736 37.3153 1.5 24.8889 1.5C12.4625 1.5 2.38892 11.5736 2.38892 24C2.38892 36.4264 12.4625 46.5 24.8889 46.5Z" fill="#98D080"/>
<path d="M16.2639 22.125C18.335 22.125 20.0139 20.4461 20.0139 18.375C20.0139 16.3039 18.335 14.625 16.2639 14.625C14.1928 14.625 12.5139 16.3039 12.5139 18.375C12.5139 20.4461 14.1928 22.125 16.2639 22.125Z" fill="#53A23A"/>
<path d="M33.5139 22.125C35.585 22.125 37.2639 20.4461 37.2639 18.375C37.2639 16.3039 35.585 14.625 33.5139 14.625C31.4428 14.625 29.7639 16.3039 29.7639 18.375C29.7639 20.4461 31.4428 22.125 33.5139 22.125Z" fill="#53A23A"/>
<path d="M37.6389 28.5C37.6389 27.9 37.2639 27.15 36.2889 26.925C33.6639 26.4 29.8389 25.95 24.8889 25.95C19.9389 25.95 16.1139 26.475 13.4889 26.925C12.5139 27.15 12.1389 27.9 12.1389 28.5C12.1389 33.975 16.3389 39.45 24.8889 39.45C33.4389 39.45 37.6389 33.975 37.6389 28.5Z" fill="#53A23A"/>
<path d="M34.4139 28.725C32.7639 28.425 29.3139 27.975 24.8889 27.975C20.4639 27.975 17.0139 28.425 15.3639 28.725C14.3889 28.875 14.3139 29.25 14.3889 29.85C14.4639 30.15 14.4639 30.6 14.6139 31.05C14.6889 31.5 14.8389 31.725 15.5889 31.65C17.0139 31.5 32.8389 31.5 34.2639 31.65C35.0139 31.725 35.0889 31.5 35.2389 31.05C35.3139 30.6 35.3889 30.225 35.4639 29.85C35.4639 29.25 35.3889 28.875 34.4139 28.725" fill="white"/>
<line x1="2.88892" y1="58" x2="46.8889" y2="58" stroke="#98D080" stroke-width="4" stroke-linecap="round"/>
<path d="M24.6858 87.25C27.6155 87.25 29.3889 85 29.3889 81.2656C29.3889 77.1484 27.1702 75.4688 24.6858 75.4688C22.1702 75.4688 20.342 77.1328 20.342 79.4688C20.342 81.6641 21.9905 83.1484 24.0842 83.1484C25.5608 83.1484 26.678 82.4141 27.0842 81.3203H27.1311C27.1467 83.7422 26.3889 85.3828 24.6936 85.3828C23.7483 85.3828 23.053 84.9531 22.803 84.1484H20.4749C20.7717 85.9766 22.4749 87.25 24.6858 87.25ZM24.6936 81.3984C23.5139 81.3984 22.6389 80.5547 22.6389 79.375C22.6389 78.2344 23.553 77.3516 24.717 77.3516C25.8733 77.3516 26.7874 78.25 26.7874 79.4141C26.7874 80.5703 25.8811 81.3984 24.6936 81.3984Z" fill="#191A1A"/>
</svg>
