<svg width="49" height="91" viewBox="0 0 49 91" fill="none" xmlns="http://www.w3.org/2000/svg">
<path d="M24.5 46.5C36.9264 46.5 47 36.4264 47 24C47 11.5736 36.9264 1.5 24.5 1.5C12.0736 1.5 2 11.5736 2 24C2 36.4264 12.0736 46.5 24.5 46.5Z" fill="#F6CA4E"/>
<path d="M30.5 36H18.5C17.375 36 17.375 33 18.5 33H30.5C31.625 33 31.625 36 30.5 36ZM20.825 24H8.82495C7.69995 24 7.69995 21 8.82495 21H20.825C21.95 21 21.95 24 20.825 24ZM40.175 24H28.175C27.05 24 27.05 21 28.175 21H40.175C41.3 21 41.3 24 40.175 24Z" fill="#DD9D37"/>
<line x1="2.5" y1="58" x2="46.5" y2="58" stroke="#F6CA4E" stroke-width="4" stroke-linecap="round"/>
<path d="M24.625 87.25C27.2109 87.25 28.9844 85.6328 28.9844 83.25C28.9844 81.1016 27.4453 79.5547 25.2969 79.5547C24.1562 79.5547 23.2266 80.0156 22.7578 80.7734H22.7109L22.9844 77.6016H28.3047V75.7266H21.1094L20.5938 82.3438H22.6484C23.0312 81.6641 23.7344 81.2422 24.6406 81.2422C25.875 81.2422 26.7344 82.0938 26.7344 83.3047C26.7344 84.5312 25.875 85.3828 24.6328 85.3828C23.5469 85.3828 22.7109 84.7422 22.5781 83.7656H20.3984C20.4609 85.8125 22.2109 87.25 24.625 87.25Z" fill="#191A1A"/>
</svg>
