<svg width="49" height="91" viewBox="0 0 49 91" fill="none" xmlns="http://www.w3.org/2000/svg">
<path d="M24.625 46.5C37.0514 46.5 47.125 36.4264 47.125 24C47.125 11.5736 37.0514 1.5 24.625 1.5C12.1986 1.5 2.125 11.5736 2.125 24C2.125 36.4264 12.1986 46.5 24.625 46.5Z" fill="#F3AC4E"/>
<path d="M16 22.2C18.0711 22.2 19.75 20.5211 19.75 18.45C19.75 16.3789 18.0711 14.7 16 14.7C13.9289 14.7 12.25 16.3789 12.25 18.45C12.25 20.5211 13.9289 22.2 16 22.2Z" fill="#D48612"/>
<path d="M33.25 22.2C35.3211 22.2 37 20.5211 37 18.45C37 16.3789 35.3211 14.7 33.25 14.7C31.1789 14.7 29.5 16.3789 29.5 18.45C29.5 20.5211 31.1789 22.2 33.25 22.2Z" fill="#D48612"/>
<path d="M15.175 34.35C21.25 30.075 28 30.15 34.075 34.35C34.825 34.875 35.425 33.975 34.975 33.15C33.1 30.15 29.425 27.375 24.625 27.375C19.825 27.375 16.15 30.075 14.275 33.15C13.825 33.975 14.425 34.875 15.175 34.35" fill="#D48612"/>
<line x1="2.625" y1="58" x2="46.625" y2="58" stroke="#F3AC4E" stroke-width="4" stroke-linecap="round"/>
<path d="M25.6172 87H27.8594V84.9297H29.3438V83.0469H27.8594V75.7266H24.5312C22.2188 79.125 20.9922 81.0938 20.0078 82.9609V84.9297H25.6172V87ZM22.0625 83.0469C22.9609 81.3672 23.9844 79.7656 25.6172 77.4141H25.6641V83.1094H22.0625V83.0469Z" fill="#191A1A"/>
</svg>
