<svg width="48" height="91" viewBox="0 0 48 91" fill="none" xmlns="http://www.w3.org/2000/svg">
<path d="M46.5 24C46.5 36.45 36.45 46.5 24 46.5C11.55 46.5 1.5 36.45 1.5 24C1.5 11.55 11.55 1.5 24 1.5C36.45 1.5 46.5 11.55 46.5 24Z" fill="#77CA90"/>
<path d="M36.75 28.5C36.75 27.9 36.375 27.15 35.4 26.925C32.775 26.4 28.95 25.95 24 25.95C19.05 25.95 15.225 26.475 12.6 26.925C11.625 27.15 11.25 27.9 11.25 28.5C11.25 33.975 15.45 39.45 24 39.45C32.55 39.45 36.75 33.975 36.75 28.5Z" fill="#4BA252"/>
<path d="M21.375 20.175C19.95 16.35 17.85 14.4 15.75 14.4C13.65 14.4 11.55 16.35 10.125 20.175C9.97503 20.55 10.725 21.225 11.1 20.85C12.45 19.425 14.1 18.825 15.75 18.825C17.4 18.825 19.05 19.425 20.4 20.85C20.85 21.225 21.525 20.55 21.375 20.175Z" fill="#4BA252"/>
<path d="M37.8 20.175C36.375 16.35 34.275 14.4 32.175 14.4C30.075 14.4 27.975 16.35 26.55 20.175C26.4 20.55 27.15 21.225 27.525 20.85C28.875 19.425 30.525 18.825 32.175 18.825C33.9 18.825 35.475 19.425 36.825 20.85C37.2 21.225 37.95 20.55 37.8 20.175Z" fill="#4BA252"/>
<path d="M33.525 28.725C31.875 28.425 28.425 27.975 24 27.975C19.575 27.975 16.125 28.425 14.475 28.725C13.5 28.875 13.425 29.25 13.5 29.85C13.575 30.15 13.575 30.6 13.725 31.05C13.8 31.5 13.95 31.725 14.7 31.65C16.125 31.5 31.95 31.5 33.375 31.65C34.125 31.725 34.2 31.5 34.35 31.05C34.425 30.6 34.5 30.225 34.575 29.85C34.575 29.25 34.5 28.875 33.525 28.725" fill="white"/>
<path d="M33.525 28.725C31.875 28.425 28.425 27.975 24 27.975C19.575 27.975 16.125 28.425 14.475 28.725C13.5 28.875 13.425 29.25 13.5 29.85C13.575 30.15 13.575 30.6 13.725 31.05C13.8 31.5 13.95 31.65 14.7 31.65H33.375C34.125 31.65 34.2 31.5 34.35 31.05C34.425 30.6 34.5 30.225 34.575 29.85C34.575 29.25 34.5 28.875 33.525 28.725" fill="white"/>
<line x1="2" y1="58" x2="46" y2="58" stroke="#77CA90" stroke-width="4" stroke-linecap="round"/>
<path d="M18.5234 87H20.8594V75.7266H18.5156L15.6016 77.75V79.8438L18.4766 77.8906H18.5234V87ZM27.8438 87.25C30.7031 87.25 32.4375 84.9766 32.4375 81.3359C32.4375 77.6953 30.6875 75.4688 27.8438 75.4688C25 75.4688 23.2422 77.7031 23.2422 81.3438C23.2422 84.9922 24.9844 87.25 27.8438 87.25ZM27.8438 85.3594C26.4531 85.3594 25.6406 83.9297 25.6406 81.3438C25.6406 78.7812 26.4688 77.3594 27.8438 77.3594C29.2266 77.3594 30.0391 78.7734 30.0391 81.3438C30.0391 83.9297 29.2344 85.3594 27.8438 85.3594Z" fill="#191A1A"/>
</svg>
