<svg width="49" height="91" viewBox="0 0 49 91" fill="none" xmlns="http://www.w3.org/2000/svg">
<path d="M24.875 46.5C37.3014 46.5 47.375 36.4264 47.375 24C47.375 11.5736 37.3014 1.5 24.875 1.5C12.4486 1.5 2.375 11.5736 2.375 24C2.375 36.4264 12.4486 46.5 24.875 46.5Z" fill="#E66C52"/>
<path d="M16.25 22.2C18.3211 22.2 20 20.5211 20 18.45C20 16.3789 18.3211 14.7 16.25 14.7C14.1789 14.7 12.5 16.3789 12.5 18.45C12.5 20.5211 14.1789 22.2 16.25 22.2Z" fill="#B63A05"/>
<path d="M33.5 22.2C35.5711 22.2 37.25 20.5211 37.25 18.45C37.25 16.3789 35.5711 14.7 33.5 14.7C31.4289 14.7 29.75 16.3789 29.75 18.45C29.75 20.5211 31.4289 22.2 33.5 22.2Z" fill="#B63A05"/>
<path d="M15.425 34.35C21.5 30.075 28.25 30.15 34.325 34.35C35.075 34.875 35.675 33.975 35.225 33.15C33.35 30.15 29.675 27.375 24.875 27.375C20.075 27.375 16.4 30.075 14.525 33.15C14.075 33.975 14.675 34.875 15.425 34.35" fill="#B63A05"/>
<line x1="2.875" y1="58" x2="46.875" y2="58" stroke="#E66C52" stroke-width="4" stroke-linecap="round"/>
<path d="M20.7109 79.1562H22.8984C22.8984 78.0703 23.75 77.3125 24.875 77.3125C25.8906 77.3125 26.5859 78 26.5859 78.9062C26.5859 79.6875 26.2656 80.2266 24.8359 81.6016L20.8438 85.3828V87H29.0391V85.125H23.9297V85.0781L26.2969 82.8125C28.2031 80.9922 28.8828 80.1406 28.8828 78.7578C28.8828 76.8828 27.2891 75.4766 24.875 75.4766C22.4297 75.4766 20.7109 76.9844 20.7109 79.1562Z" fill="#191A1A"/>
</svg>
