<svg width="49" height="91" viewBox="0 0 49 91" fill="none" xmlns="http://www.w3.org/2000/svg">
<path d="M24.375 46.5C36.8014 46.5 46.875 36.4264 46.875 24C46.875 11.5736 36.8014 1.5 24.375 1.5C11.9486 1.5 1.875 11.5736 1.875 24C1.875 36.4264 11.9486 46.5 24.375 46.5Z" fill="#F9E350"/>
<path d="M30.375 36H18.375C17.25 36 17.25 33 18.375 33H30.375C31.5 33 31.5 36 30.375 36ZM20.7 24H8.69995C7.57495 24 7.57495 21 8.69995 21H20.7C21.825 21 21.825 24 20.7 24ZM40.05 24H28.05C26.925 24 26.925 21 28.05 21H40.05C41.175 21 41.175 24 40.05 24Z" fill="#DD9D37"/>
<line x1="2.375" y1="58" x2="46.375" y2="58" stroke="#F9E350" stroke-width="4" stroke-linecap="round"/>
<path d="M24.5703 87.25C27.0859 87.25 28.9141 85.5859 28.9141 83.25C28.9141 81.1328 27.4219 79.5781 25.2422 79.5781C23.7188 79.5781 22.6094 80.3438 22.1719 81.3906H22.125C22.1172 78.9219 22.9297 77.3359 24.5703 77.3359C25.5 77.3359 26.1719 77.8047 26.4375 78.6094H28.7656C28.4531 76.75 26.7656 75.4688 24.5781 75.4688C21.6484 75.4688 19.8672 77.7188 19.8672 81.4531C19.8672 85.3438 21.875 87.25 24.5703 87.25ZM24.5391 85.375C23.3828 85.375 22.4766 84.4688 22.4766 83.3047C22.4766 82.1562 23.3672 81.3203 24.5625 81.3203C25.7422 81.3203 26.6172 82.1641 26.6172 83.3516C26.6094 84.4844 25.6953 85.375 24.5391 85.375Z" fill="#191A1A"/>
</svg>
