<svg width="49" height="91" viewBox="0 0 49 91" fill="none" xmlns="http://www.w3.org/2000/svg">
<path d="M24.75 46.5C37.1764 46.5 47.25 36.4264 47.25 24C47.25 11.5736 37.1764 1.5 24.75 1.5C12.3236 1.5 2.25 11.5736 2.25 24C2.25 36.4264 12.3236 46.5 24.75 46.5Z" fill="#EF8C51"/>
<path d="M16.125 22.2C18.1961 22.2 19.875 20.5211 19.875 18.45C19.875 16.3789 18.1961 14.7 16.125 14.7C14.0539 14.7 12.375 16.3789 12.375 18.45C12.375 20.5211 14.0539 22.2 16.125 22.2Z" fill="#D5570C"/>
<path d="M33.375 22.2C35.4461 22.2 37.125 20.5211 37.125 18.45C37.125 16.3789 35.4461 14.7 33.375 14.7C31.3039 14.7 29.625 16.3789 29.625 18.45C29.625 20.5211 31.3039 22.2 33.375 22.2Z" fill="#D5570C"/>
<path d="M15.3 34.35C21.375 30.075 28.125 30.15 34.2 34.35C34.95 34.875 35.55 33.975 35.1 33.15C33.225 30.15 29.55 27.375 24.75 27.375C19.95 27.375 16.275 30.075 14.4 33.15C13.95 33.975 14.55 34.875 15.3 34.35" fill="#D5570C"/>
<line x1="2.75" y1="58" x2="46.75" y2="58" stroke="#EF8C51" stroke-width="4" stroke-linecap="round"/>
<path d="M23.2344 82.0391H24.5234C25.8906 82.0391 26.6953 82.6484 26.6875 83.7422C26.6875 84.6953 25.875 85.3516 24.6953 85.3516C23.4531 85.3516 22.6406 84.7266 22.5625 83.8047H20.3125C20.4141 85.875 22.1484 87.25 24.6953 87.25C27.3125 87.25 29.0859 85.8906 29.0859 83.8438C29.0859 82.2969 27.9922 81.3047 26.3203 81.1484V81.1016C27.6484 80.8281 28.6719 79.8984 28.6719 78.4609C28.6719 76.6562 27.0625 75.4766 24.6797 75.4766C22.3203 75.4766 20.6797 76.7969 20.5625 78.8594H22.7266C22.7969 77.8828 23.5703 77.2891 24.6797 77.2891C25.8047 77.2891 26.4375 77.875 26.4375 78.7969C26.4375 79.7188 25.6719 80.3594 24.4922 80.3594H23.2344V82.0391Z" fill="#191A1A"/>
</svg>
