<svg width="49" height="91" viewBox="0 0 49 91" fill="none" xmlns="http://www.w3.org/2000/svg">
<path d="M24.6666 46.5C37.093 46.5 47.1666 36.4264 47.1666 24C47.1666 11.5736 37.093 1.5 24.6666 1.5C12.2402 1.5 2.16663 11.5736 2.16663 24C2.16663 36.4264 12.2402 46.5 24.6666 46.5Z" fill="#D9DC5C"/>
<path d="M16.0416 23.7C18.1127 23.7 19.7916 22.0211 19.7916 19.95C19.7916 17.8789 18.1127 16.2 16.0416 16.2C13.9706 16.2 12.2916 17.8789 12.2916 19.95C12.2916 22.0211 13.9706 23.7 16.0416 23.7Z" fill="#A7AE38"/>
<path d="M33.2916 23.7C35.3627 23.7 37.0416 22.0211 37.0416 19.95C37.0416 17.8789 35.3627 16.2 33.2916 16.2C31.2206 16.2 29.5416 17.8789 29.5416 19.95C29.5416 22.0211 31.2206 23.7 33.2916 23.7Z" fill="#A7AE38"/>
<path d="M34.1166 30.225C28.0416 34.5 21.2916 34.425 15.2166 30.225C14.4666 29.7 13.8666 30.6 14.3166 31.425C16.1916 34.425 19.8666 37.2 24.6666 37.2C29.4666 37.2 33.1416 34.5 35.0166 31.425C35.4666 30.6 34.8666 29.7 34.1166 30.225" fill="#A7AE38"/>
<line x1="2.66663" y1="58" x2="46.6666" y2="58" stroke="#D9DC5C" stroke-width="4" stroke-linecap="round"/>
<path d="M21.4713 87H23.9479L28.651 77.625V75.7266H20.5885V77.6016H26.3229V77.6484L21.4713 87Z" fill="#191A1A"/>
</svg>
