<svg width="49" height="91" viewBox="0 0 49 91" fill="none" xmlns="http://www.w3.org/2000/svg">
<path d="M24.7778 46.5C37.2042 46.5 47.2778 36.4264 47.2778 24C47.2778 11.5736 37.2042 1.5 24.7778 1.5C12.3514 1.5 2.27783 11.5736 2.27783 24C2.27783 36.4264 12.3514 46.5 24.7778 46.5Z" fill="#B6D56D"/>
<path d="M16.1528 23.7C18.2239 23.7 19.9028 22.0211 19.9028 19.95C19.9028 17.8789 18.2239 16.2 16.1528 16.2C14.0818 16.2 12.4028 17.8789 12.4028 19.95C12.4028 22.0211 14.0818 23.7 16.1528 23.7Z" fill="#80A531"/>
<path d="M33.4028 23.7C35.4739 23.7 37.1528 22.0211 37.1528 19.95C37.1528 17.8789 35.4739 16.2 33.4028 16.2C31.3318 16.2 29.6528 17.8789 29.6528 19.95C29.6528 22.0211 31.3318 23.7 33.4028 23.7Z" fill="#80A531"/>
<path d="M34.2278 30.225C28.1528 34.5 21.4028 34.425 15.3278 30.225C14.5778 29.7 13.9778 30.6 14.4278 31.425C16.3028 34.425 19.9778 37.2 24.7778 37.2C29.5778 37.2 33.2528 34.5 35.1278 31.425C35.5778 30.6 34.9778 29.7 34.2278 30.225" fill="#80A531"/>
<line x1="2.77783" y1="58" x2="46.7778" y2="58" stroke="#B6D56C" stroke-width="4" stroke-linecap="round"/>
<path d="M24.7778 87.25C27.4653 87.25 29.3481 85.9062 29.3481 83.9531C29.3481 82.4688 28.2622 81.375 26.7231 81.0703V81.0234C28.0435 80.6953 28.9341 79.7266 28.9341 78.5156C28.9341 76.75 27.2231 75.4766 24.7778 75.4766C22.3325 75.4766 20.6138 76.7578 20.6138 78.5078C20.6138 79.7344 21.5122 80.7031 22.8403 81.0234V81.0703C21.3013 81.3672 20.2075 82.4609 20.2075 83.9453C20.2075 85.8984 22.0825 87.25 24.7778 87.25ZM24.7778 85.5312C23.5356 85.5312 22.6685 84.7969 22.6685 83.7734C22.6685 82.7656 23.5356 82.0312 24.7778 82.0312C26.02 82.0312 26.8794 82.7578 26.8794 83.7734C26.8794 84.7969 26.02 85.5312 24.7778 85.5312ZM24.7778 80.3125C23.7075 80.3125 22.9497 79.6719 22.9497 78.75C22.9497 77.8203 23.7075 77.1797 24.7778 77.1797C25.8403 77.1797 26.606 77.8203 26.606 78.75C26.606 79.6719 25.8403 80.3125 24.7778 80.3125Z" fill="#191A1A"/>
</svg>
